<svg xmlns="http://www.w3.org/2000/svg" version="1.1" xmlns:xlink="http://www.w3.org/1999/xlink" xmlns:svgjs="http://svgjs.com/svgjs" width="1440" height="600" preserveAspectRatio="none" viewBox="0 0 1440 600"><g mask="url(&quot;#SvgjsMask1324&quot;)" fill="none"><path d="M1560 600L0 600 L0 267.28Q67.7 262.98, 72 330.68Q81.94 220.62, 192 230.56Q213.23 179.79, 264 201.02Q350.11 167.13, 384 253.24Q437.88 187.13, 504 241.01Q553.3 218.31, 576 267.61Q656.71 228.32, 696 309.03Q744.59 237.62, 816 286.2Q865.91 216.11, 936 266.02Q968.27 178.3, 1056 210.57Q1128.09 162.66, 1176 234.74Q1277.39 216.13, 1296 317.53Q1296.85 246.38, 1368 247.22Q1379.47 186.69, 1440 198.16Q1507.47 145.63, 1560 213.11z" fill="rgba(0, 9, 106, 1)"></path><path d="M1464 600L0 600 L0 320.08Q117.44 317.52, 120 434.96Q171.56 366.52, 240 418.08Q281.8 339.88, 360 381.67Q384.29 333.96, 432 358.25Q490 344.25, 504 402.26Q506.13 332.39, 576 334.53Q618.08 256.61, 696 298.69Q738.26 268.96, 768 311.22Q817.54 288.76, 840 338.3Q906.43 332.73, 912 399.16Q955.4 370.56, 984 413.96Q996.43 354.39, 1056 366.82Q1067.45 306.27, 1128 317.72Q1199.4 269.12, 1248 340.52Q1310.02 330.54, 1320 392.57Q1374.04 374.61, 1392 428.64Q1419.26 383.9, 1464 411.16z" fill="rgba(73, 82, 184, 1)"></path><path d="M1512 600L0 600 L0 526.3Q48.04 454.34, 120 502.37Q149.9 412.27, 240 442.17Q290.82 420.99, 312 471.81Q313.38 401.19, 384 402.58Q468.15 414.73, 456 498.87Q497.76 468.63, 528 510.4Q568.37 430.76, 648 471.13Q656.08 407.21, 720 415.29Q762.24 385.53, 792 427.77Q880.75 396.52, 912 485.27Q951.03 404.3, 1032 443.33Q1078.17 417.5, 1104 463.68Q1170.79 458.47, 1176 525.26Q1228.33 457.59, 1296 509.91Q1319.31 461.22, 1368 484.53Q1371.19 415.72, 1440 418.91Q1469.03 375.94, 1512 404.97z" fill="rgba(192, 197, 246, 1)"></path><path d="M1464 600L0 600 L0 573.58Q76.74 530.33, 120 607.07Q171.88 586.95, 192 638.82Q215.17 541.99, 312 565.16Q331.57 512.73, 384 532.31Q437.41 465.72, 504 519.14Q532.84 475.98, 576 504.81Q625.6 482.41, 648 532.01Q700.88 464.89, 768 517.77Q882.19 511.96, 888 626.16Q894.86 561.02, 960 567.88Q1011.95 499.83, 1080 551.78Q1167.55 519.33, 1200 606.88Q1244.23 531.11, 1320 575.34Q1378.68 562.03, 1392 620.71Q1419.32 576.03, 1464 603.35z" fill="rgba(255, 255, 255, 1)"></path></g><defs><mask id="SvgjsMask1324"><rect width="1440" height="600" fill="#ffffff"></rect></mask></defs></svg>